# xmcd
#
# Track frame offsets: 
#        150
#        10768
#        21907
#        32889
#        46131
#        59090
#        72386
#        89723
#        105198
#        118732
#        136370
#        149181
#        170470
#        178364
#
# Disc length: 2636 seconds
#
# Revision: 0
# Processed by: cddbd v1.5.2PL0 Copyright (c) Steve Scherf et al.
# Submitted via: ExactAudioCopy v0.99pb5
#
DISCID=d30a4a0e
DTITLE=Cherry Lee Mewis - Little Girl Blue
DYEAR=2007
DGENRE=Blues
TTITLE0=Cherry Wine
TTITLE1=Where's My Good Man
TTITLE2=Sweet Substitute
TTITLE3=Baby I Don't Cry Over You
TTITLE4=Nothin' In Ramblin
TTITLE5=Red Hot
TTITLE6=Wade In The Water
TTITLE7=Ugly Night
TTITLE8=Shame, Shame, Shame
TTITLE9=Mistreated
TTITLE10=Cry Me A River
TTITLE11=The Man Next Door
TTITLE12=Mercedes Benz
TTITLE13=Everybody Here Wants You
EXTD=
EXTT0=
EXTT1=
EXTT2=
EXTT3=
EXTT4=
EXTT5=
EXTT6=
EXTT7=
EXTT8=
EXTT9=
EXTT10=
EXTT11=
EXTT12=
EXTT13=
PLAYORDER=
